<?xml version="1.0" encoding="UTF-8" standalone="no"?>
<!DOCTYPE svg PUBLIC "-//W3C//DTD SVG 1.1//EN" "http://www.w3.org/Graphics/SVG/1.1/DTD/svg11.dtd">
<svg width="100%" height="100%" viewBox="0 0 512 512" version="1.1" xmlns="http://www.w3.org/2000/svg" xmlns:xlink="http://www.w3.org/1999/xlink" xml:space="preserve" xmlns:serif="http://www.serif.com/" style="fill-rule:evenodd;clip-rule:evenodd;stroke-linejoin:round;stroke-miterlimit:2;">
    <g transform="matrix(4.30452,0,0,4.52469,-446.306,-315.563)">
        <path d="M222.628,81.368C222.628,74.952 217.152,69.743 210.408,69.743L115.903,69.743C109.159,69.743 103.683,74.952 103.683,81.368L103.683,171.274C103.683,177.69 109.159,182.9 115.903,182.9L210.408,182.9C217.152,182.9 222.628,177.69 222.628,171.274L222.628,81.368Z" style="fill:rgb(12,29,96);"/>
    </g>
    <g transform="matrix(0.4608,0,0,0.4608,25.6,19.2)">
        <path d="M212.3,382.1L216,419.3L327.4,486.3C329,485.8 330.6,485.3 332.2,484.8C330.7,478.2 329.4,471.8 328.3,465.4L212.3,382.1ZM459.8,218L476.3,366.1C484.4,372.4 492.6,379.4 500.8,387.1C508.6,379.8 516.4,373.1 524.1,366.9L540.7,218L500.5,172.5L459.8,218ZM260.6,516L184.2,496L155.3,519.3L236.7,533.7C244.1,527.1 252.1,521.2 260.6,516ZM355.8,330.8C356.3,330.5 356.7,330.3 357.2,330L338,297.3L301.1,293.3L338.8,347.2C343.1,340.4 348.9,334.8 355.8,330.8ZM324.9,442.4C321.8,413.5 323.1,388.3 329,368.6L271.5,296.6L210.9,292.9L214.2,353.9L324.9,442.4ZM414.7,265.5L432.7,338C441.2,342.3 449.4,347.1 457.3,352.4L438.3,236.6L414.7,265.5ZM568.4,337.8L587.2,265.4L564,236.5L543.6,352.5C551.5,347.1 559.8,342.2 568.4,337.8ZM764.7,533.1L846.7,519.6L817.7,496L740.3,515.3C749,520.5 757.1,526.5 764.7,533.1ZM221.7,614.1C214.5,603.8 210.7,593.1 210.7,582.2C210.7,571.9 214.1,561.7 220.6,552L136.7,542.6L91.2,582.8L136.6,623.6L221.7,614.1ZM673.4,464.1C672.2,470.8 670.9,477.7 669.3,484.7L672.7,485.7L786,419.3L790,382.4L673.4,464.1ZM791.3,582.2C791.3,592.6 787.8,602.8 781.2,612.7L865.2,622.1L910.7,581.9L865.2,541.1L780.4,550.6C787.5,560.8 791.3,571.4 791.3,582.2ZM662.7,347.1L701.1,293.5L664,297.3L644.5,329.8L645.4,330.3C652.4,334.4 658.3,340.2 662.7,347.1ZM676.6,440.7L786.6,352.8L790.3,292.2L729.3,295.5L672,367.4C678,386.8 679.5,411.9 676.6,440.7ZM446.5,167.3L500.8,127.8L555.1,167.3L534.3,103.4L588.6,63.9L521.4,63.9L500.9,0L480.1,63.9L412.9,63.9L467.2,103.4L446.5,167.3ZM677.3,722.6C680.4,751.5 679,776.7 673,796.2L730.4,868.1L791,871.8L787.7,810.8L677.3,722.6ZM656.6,671.6C724,650.8 768.1,617.3 768.1,582.1C768.1,546.7 723.8,513.2 655.9,492.4C671.6,423.2 664.6,368.1 633.9,350.5C626.9,346.4 618.6,344.4 609.7,344.4L609.7,344.3C579.8,344.3 540.6,365.6 501,402.6C461.4,365.8 422.2,344.7 392.3,344.7L392.3,344.8C383.2,344.8 374.9,346.8 367.7,350.9C337.1,368.5 330.3,423.5 346,492.5C278.3,513.4 234.3,546.8 234.3,582.1C234.3,617.4 278.6,651 346.4,671.8C330.7,741 337.7,796.1 368.4,813.7C375.5,817.8 383.7,819.8 392.9,819.8C422.8,819.8 462,798.5 501.6,761.5C541.2,798.3 580.4,819.4 610.3,819.4C619.4,819.4 627.7,817.4 634.9,813.3C665.6,795.6 672.4,740.6 656.6,671.6ZM609.6,368.6L609.6,368.7C613.9,368.6 618.2,369.5 622,371.5C636.8,380 643.2,412.3 638.2,453.9C637,464.1 635,474.9 632.7,485.9C610,480.4 586.9,476.4 563.7,474C549.8,454.9 534.7,436.7 518.4,419.6C553.7,386.7 587,368.7 609.6,368.6ZM404.9,637.8C410,646.5 415.2,655 420.6,663.3C405.2,661 390.3,658.2 376,654.7C380,640.7 385,626.2 390.7,611.7C395.1,620.4 399.8,629.1 404.9,637.8ZM375.7,509.5C389.9,506.1 404.9,503.2 420.5,500.9C415.2,509.3 409.8,517.9 404.8,526.7C399.8,535.5 395.1,544.1 390.7,552.8C384.8,538.2 379.8,523.7 375.7,509.5ZM403.4,582.4C410.1,567.8 417.8,553.2 425.9,539C434.4,524.3 443.1,510.4 452.1,497.4C468.3,496 484.7,495.2 501.3,495.2C517.9,495.2 534.1,496 550.3,497.3C559.3,510.2 568.1,524 576.6,538.6C584.9,552.9 592.4,567.3 599.2,581.9C592.4,596.5 584.9,611.1 576.7,625.3C568.2,640 559.5,653.9 550.5,666.9C534.3,668.3 517.9,669.1 501.3,669.1C484.7,669.1 468.5,668.3 452.3,667C443.3,654 434.5,640.2 426,625.6C417.7,611.5 410.2,597 403.4,582.4ZM597.7,637.5C602.7,628.7 607.4,620 611.8,611.3C617.7,625.9 622.7,640.5 626.8,654.6C612.6,658.1 597.5,661.1 582,663.3C587.3,654.9 592.7,646.3 597.7,637.5ZM597.5,526.4C592.4,517.7 587.2,509.2 581.8,500.9C597.2,503.2 612.1,506 626.4,509.5C622.4,523.5 617.4,538 611.7,552.5C607.3,543.8 602.7,535.1 597.5,526.4ZM501,436.8C511.7,447.9 521.8,459.5 531.2,471.6C521.4,471.2 511.4,470.8 501.3,470.8C491.2,470.8 481,471 471.1,471.6C480.4,459.5 490.4,447.9 501,436.8ZM379.9,372C383.2,370 387.4,369.2 392.4,369.2L392.4,369C414.9,369 448.3,387 483.8,419.7C467.6,436.7 452.6,454.9 438.9,474C415.6,476.4 392.5,480.4 369.7,486C367.2,475.1 365.3,464.6 364,454.4C358.9,412.9 365.2,380.6 379.9,372ZM352.5,648.2C341.7,644.9 331.5,641.2 322,637.1C283.5,620.7 258.6,599.1 258.6,582C258.6,564.9 283.5,543.3 322,526.9C331.4,522.9 341.6,519.3 352.1,515.9C358.8,538.5 366.9,560.7 376.6,582.2C367.1,603.7 359,625.7 352.5,648.2ZM392.8,795.5C388.5,795.6 384.3,794.6 380.5,792.6C365.7,784.1 359.3,751.8 364.3,710.2C365.5,700 367.5,689.2 369.8,678.2C392.5,683.7 415.6,687.6 438.9,690.1C452.8,709.2 467.9,727.4 484.2,744.5C448.7,777.5 415.4,795.5 392.8,795.5ZM501.5,727.3C490.8,716.2 480.7,704.6 471.3,692.5C481.1,692.9 491.1,693.3 501.2,693.3C511.3,693.3 521.5,693.1 531.4,692.5C522.1,704.7 512.1,716.3 501.5,727.3ZM622.6,792.2C619.3,794.2 615.1,795 610.1,795C587.6,795 554.2,777 518.7,744.3C534.9,727.2 549.9,709.1 563.7,690C587,687.6 610.1,683.6 632.9,678C635.3,688.5 637.2,699.1 638.6,709.7C643.6,751.3 637.3,783.6 622.6,792.2ZM625.8,581.9C635.4,560.5 643.4,538.5 650,516C660.8,519.4 671,523.1 680.6,527.1C719,543.5 744,565.1 744,582.2C744,599.3 718.9,620.9 680.4,637.3C671.1,641.3 660.8,644.9 650.3,648.3C643.6,625.5 635.4,603.4 625.8,581.9ZM501.2,631.8C528.7,631.8 550.9,609.5 550.9,582.1C550.9,554.7 528.6,532.4 501.2,532.4C473.7,532.4 451.5,554.7 451.5,582.1C451.5,609.5 473.7,631.8 501.2,631.8ZM789.7,782.5L785.9,745.3L674.3,678.2L669.9,679.6C671.4,686.3 672.8,692.9 673.9,699.4L789.7,782.5ZM108.7,896.6L87.9,832.7L67.1,896.6L0,896.6L54.3,936.1L33.6,1000L87.9,960.5L142.2,1000L121.4,936.1L175.7,896.6L108.7,896.6ZM1000,896L932.8,896L912,832.1L891.3,896L824.1,896L878.4,935.5L857.6,999.4L912,959.9L966.3,999.4L945.5,935.5L1000,896ZM646.4,833.7C645.9,834 645.3,834.3 644.7,834.6L664,867.4L700.9,871.4L663.2,817.6C658.9,824.2 653.2,829.7 646.4,833.7ZM544.5,811.8L563.6,928.2L587.2,899.2L569,826.2C560.6,821.9 552.4,817.1 544.5,811.8ZM765.1,631C757.7,637.6 749.7,643.5 741.2,648.7L817.7,668.7L846.6,645.5L765.1,631ZM328.5,700.6C329.7,693.8 331.1,686.9 332.7,679.8L329.5,678.8L216,745.4L212,782.3L328.5,700.6ZM237.5,631.5L155.3,645L184.2,668.6L261.8,649.3C253.2,644.1 245,638.1 237.5,631.5ZM325.3,724L215.3,811.9L211.6,872.5L272.6,869.2L330,797.3C323.9,777.8 322.4,752.7 325.3,724ZM339.3,817.5L300.8,871.2L338,867.4L357.6,834.7L356.6,834.1C349.6,830.1 343.7,824.3 339.3,817.5ZM501.5,777.3C493.6,784.7 485.8,791.4 478,797.6L461.3,946.6L501.5,992.1L542.3,946.6L525.7,798C517.6,791.8 509.6,784.9 501.5,777.3ZM414.7,899.2L438,928.2L458.4,812C450.5,817.4 442.2,822.3 433.6,826.6L414.7,899.2Z" style="fill:rgb(247,214,99);fill-rule:nonzero;"/>
    </g>
</svg>
