<?xml version="1.0" encoding="UTF-8" standalone="no"?><!-- Generator: Gravit.io --><svg xmlns="http://www.w3.org/2000/svg" xmlns:xlink="http://www.w3.org/1999/xlink" style="isolation:isolate" viewBox="0 0 876 1000" width="876pt" height="1000pt"><defs><clipPath id="_clipPath_0t6asAoGQmjL8wc8vOlpwj5WsJmpBqh1"><rect width="876" height="1000"/></clipPath></defs><g clip-path="url(#_clipPath_0t6asAoGQmjL8wc8vOlpwj5WsJmpBqh1)"><path d=" M 106.515 400.027 L 115.503 433.792 L 223.45 477.544 C 224.775 476.822 226.099 476.099 227.424 475.376 C 225.09 469.523 222.962 463.822 221.01 458.089 L 106.515 400.027 Z  M 297.998 208.1 L 335.332 342.238 C 343.402 346.739 351.667 351.87 360.04 357.648 C 365.746 349.633 371.545 342.173 377.333 335.19 L 368.874 194.921 L 326.626 159.434 L 297.998 208.1 Z  M 169.515 515.865 L 99.492 509.834 L 77.772 536.068 L 151.311 536.111 C 156.774 528.808 162.872 522.054 169.515 515.865 Z  M 224.31 329.255 C 224.701 328.897 225.021 328.647 225.413 328.288 L 203.54 301.205 L 170.594 303.521 L 211.95 347.176 C 214.666 340.193 218.883 334.075 224.31 329.255 Z  M 214.478 437.393 C 207.298 411.198 204.544 387.705 206.67 368.544 L 145.172 311.392 L 91.509 317.845 L 103.823 373.664 L 214.478 437.393 Z  M 265.824 259.331 L 292.793 323.38 C 300.905 325.968 308.83 329.067 316.57 332.676 L 282.035 228.787 L 265.824 259.331 Z  M 411.648 301.089 L 416.935 231.138 L 392.145 208.217 L 392.192 318.71 C 398.279 312.434 404.794 306.555 411.648 301.089 Z  M 613.795 449.544 L 683.549 423.713 L 654.497 406.634 L 589.669 437.074 C 598.094 440.46 606.117 444.684 613.795 449.544 Z  M 150.589 612.834 C 142.69 604.491 137.708 595.225 136.025 585.155 C 134.433 575.639 135.837 565.661 140.033 555.641 L 65.076 560.624 L 31.424 605.176 L 77.502 635.474 L 150.589 612.834 Z  M 523.149 400.669 C 523.132 407.055 523.059 413.641 522.739 420.369 L 525.872 420.739 L 614.876 340.937 L 612.68 306.194 L 523.149 400.669 Z  M 644.684 490.573 C 646.291 500.181 644.8 510.175 640.547 520.396 L 715.591 515.397 L 749.243 470.845 L 703.078 440.563 L 630.253 463.154 C 638.049 471.421 643.016 480.595 644.684 490.573 Z  M 495.701 294.319 L 521.062 238.544 L 489.146 248.098 L 477.083 281.301 L 477.949 281.616 C 484.715 284.264 490.78 288.661 495.701 294.319 Z  M 522.337 378.529 L 605.129 279.401 L 599.009 222.812 L 546.077 235.798 L 506.984 311.559 C 515.238 328.504 520.429 351.449 522.337 378.529 Z  M 278.514 163.426 L 319.984 118.088 L 373.658 145.735 L 345.564 90.088 L 387.034 44.749 L 328.16 55.696 L 300.329 0 L 291.978 62.424 L 233.104 73.371 L 286.778 101.019 L 278.514 163.426 Z  M 566.498 638.856 C 573.679 665.051 576.345 688.56 574.101 707.553 L 635.495 764.629 L 689.158 758.176 L 676.844 702.357 L 566.498 638.856 Z  M 540.485 595.11 C 596.32 564.914 629.781 526.78 624.343 494.26 C 618.875 461.554 574.889 437.821 512.189 429.666 C 515.254 363.176 500.609 313.411 470.994 302.152 C 464.228 299.504 456.648 299.009 448.851 300.459 L 448.835 300.366 C 422.64 305.237 391.587 331.301 362.61 371.936 C 322.232 344.388 284.63 331.28 258.434 336.151 L 258.45 336.243 C 250.477 337.726 243.515 340.926 237.84 345.887 C 213.751 367.132 216.289 419.052 240.703 480.242 C 184.62 510.58 151.232 548.605 156.685 581.218 C 162.138 613.831 206.139 637.656 268.752 645.828 C 265.687 712.318 280.331 762.083 309.946 773.342 C 316.8 775.973 324.293 776.485 332.353 774.986 C 358.548 770.115 389.6 744.051 418.578 703.417 C 458.956 730.964 496.558 744.072 522.754 739.201 C 530.726 737.719 537.689 734.519 543.363 729.558 C 567.525 708.205 564.986 656.284 540.485 595.11 Z  M 452.501 322.833 L 452.517 322.925 C 456.269 322.132 460.175 322.263 463.813 323.492 C 478.092 328.934 488.689 357.732 490.735 396.98 C 491.259 406.599 491.175 416.903 490.859 427.44 C 470.122 426.057 449.267 426.124 428.571 427.686 C 413.442 412.305 397.402 397.95 380.48 384.807 C 406.324 348.661 432.717 326.607 452.501 322.833 Z  M 314.751 604.886 C 320.563 612.093 326.432 619.099 332.445 625.887 C 318.598 626.271 305.111 626.112 292.042 625.208 C 293.384 611.622 295.525 597.411 298.278 583.086 C 303.477 590.407 308.939 597.679 314.751 604.886 Z  M 269.349 491.11 C 281.265 485.655 293.958 480.533 307.27 475.866 C 303.924 484.49 300.522 493.315 297.501 502.26 C 294.48 511.205 291.69 519.916 289.18 528.67 C 281.755 516.143 275.135 503.561 269.349 491.11 Z  M 304.879 553.948 C 308.493 539.368 312.984 524.625 317.886 510.186 C 323.062 495.221 328.537 480.962 334.414 467.485 C 348.39 463.553 362.634 460.142 377.177 457.438 C 391.721 454.733 406.037 452.834 420.43 451.396 C 430.308 461.847 440.149 473.163 449.852 485.267 C 459.332 497.127 468.127 509.209 476.34 521.589 C 472.638 536.186 468.323 550.896 463.333 565.351 C 458.157 580.317 452.682 594.576 446.805 608.052 C 432.829 611.985 418.585 615.395 404.041 618.1 C 389.498 620.804 375.182 622.704 360.788 624.142 C 350.895 613.597 341.054 602.282 331.352 590.178 C 321.902 578.503 313.091 566.329 304.879 553.948 Z  M 483.615 573.201 C 486.636 564.257 489.41 555.453 491.921 546.699 L 491.921 546.699 C 499.345 559.226 505.981 571.9 511.751 584.259 C 499.851 589.806 487.086 595.037 473.846 599.595 C 477.192 590.971 480.594 582.146 483.615 573.201 Z  M 466.277 470.591 C 460.465 463.384 454.597 456.378 448.583 449.59 C 462.431 449.206 475.917 449.366 488.986 450.27 C 487.644 463.856 485.504 478.066 482.75 492.391 C 477.551 485.07 472.177 477.782 466.277 470.591 Z  M 367.893 403.532 C 378.982 412.044 389.622 421.116 399.727 430.763 C 391.079 431.99 382.257 433.25 373.408 434.895 C 364.56 436.54 355.654 438.387 347.074 440.554 C 353.352 427.86 360.321 415.514 367.893 403.532 L 367.893 403.532 Z  M 251.788 363.393 C 254.37 361.008 257.926 359.584 262.307 358.77 L 262.276 358.585 C 281.988 354.92 314.03 366.108 350.183 390.536 C 338.616 408.881 328.286 428.139 319.234 448.017 C 299.192 454.03 279.572 461.488 260.462 470.376 C 256.588 460.713 253.302 451.322 250.587 442.11 C 239.708 404.6 240.238 373.733 251.788 363.393 Z  M 270.45 623.031 C 260.479 621.741 250.971 619.985 242.015 617.744 C 205.752 608.865 180.6 592.965 177.959 577.167 C 175.317 561.369 193.795 537.357 224.991 515.933 C 232.608 510.706 240.988 505.719 249.662 500.867 C 259.023 520.655 269.549 539.846 281.368 558.129 C 276.367 579.54 272.669 601.185 270.45 623.031 Z  M 328.511 752.552 C 324.76 753.345 320.926 753.106 317.287 751.877 L 317.287 751.877 C 303.008 746.435 292.412 717.636 290.366 678.389 C 289.841 668.77 289.925 658.466 290.241 647.929 C 310.978 649.312 331.818 649.152 352.617 647.666 C 367.745 663.048 383.786 677.402 400.708 690.545 C 374.704 726.816 348.311 748.871 328.511 752.552 Z  M 413.207 671.836 L 413.207 671.836 C 402.118 663.325 391.478 654.253 381.373 644.605 C 390.021 643.378 398.844 642.119 407.692 640.474 C 416.541 638.828 425.446 636.982 434.027 634.815 C 427.763 647.601 420.795 659.947 413.207 671.836 Z  M 529.328 712.068 C 526.746 714.454 523.19 715.877 518.809 716.691 C 499.097 720.357 467.055 709.168 430.902 684.74 C 442.453 666.303 452.799 647.137 461.938 627.243 C 481.98 621.23 501.6 613.772 520.71 604.884 C 524.435 614.194 527.737 623.677 530.601 633.242 L 530.601 633.242 C 541.407 670.861 540.878 701.728 529.328 712.068 Z  M 499.644 517.256 C 504.749 495.921 508.359 474.293 510.666 452.43 C 520.653 453.812 530.16 455.569 539.189 457.701 C 575.364 466.597 600.603 482.48 603.245 498.278 C 605.886 514.076 587.233 538.121 556.037 559.544 L 556.037 559.544 C 548.507 564.755 540.04 569.759 531.366 574.61 C 521.974 554.637 511.376 535.556 499.644 517.256 Z  M 398.192 583.655 C 422.284 579.175 438.289 554.957 434.056 529.642 C 429.823 504.328 406.841 487.359 382.837 491.822 C 358.744 496.302 342.74 520.521 346.972 545.835 C 351.205 571.149 374.099 588.135 398.192 583.655 Z  M 674.224 675.885 L 665.149 642.136 L 557.011 598.324 L 553.373 600.335 C 555.722 606.28 557.968 612.15 559.936 617.976 L 674.224 675.885 Z  M 95.231 892.237 L 67.137 836.59 L 58.786 899.014 L 0 909.945 L 53.674 937.592 L 45.41 1000 L 86.88 954.661 L 140.553 982.309 L 112.46 926.661 L 153.929 881.323 L 95.231 892.237 Z  M 876 746.487 L 817.127 757.434 L 789.033 701.786 L 780.769 764.194 L 721.895 775.141 L 775.569 802.789 L 767.217 865.213 L 808.775 819.858 L 862.449 847.505 L 834.355 791.858 L 876 746.487 Z  M 556.59 746.532 C 556.198 746.891 555.719 747.265 555.239 747.64 L 577.215 774.799 L 610.161 772.484 L 568.821 728.921 C 566.073 735.719 561.929 741.729 556.59 746.532 Z  M 463.933 742.899 L 498.647 847.327 L 514.843 816.69 L 487.621 752.212 C 479.598 749.607 471.673 746.509 463.933 742.899 Z  M 629.269 539.926 C 623.805 547.229 617.708 553.983 611.065 560.172 L 681.175 566.187 L 702.91 540.045 L 629.269 539.926 Z  M 257.519 675.351 C 257.519 668.874 257.68 662.271 257.985 655.451 L 255.027 655.048 L 165.879 735.068 L 168.075 769.81 L 257.519 675.351 Z  M 167.12 626.336 L 97.19 652.199 L 126.155 669.294 L 191.158 638.822 C 182.821 635.419 174.71 631.212 167.12 626.336 Z  M 258.33 697.491 L 175.538 796.619 L 181.658 853.209 L 234.59 840.223 L 273.771 764.446 C 265.414 747.424 260.223 724.479 258.33 697.491 Z  M 285.039 781.593 L 259.605 837.477 L 291.609 827.906 L 303.729 794.503 L 302.76 794.111 C 296.009 791.556 289.944 787.159 285.039 781.593 Z  M 420.931 718.03 C 415.153 726.154 409.355 733.614 403.479 740.613 L 411.865 880.991 L 454.113 916.479 L 482.829 867.796 L 445.33 733.212 C 437.276 728.804 429.202 723.732 420.931 718.03 Z  M 363.717 844.791 L 388.61 867.787 L 388.532 757.11 C 382.445 763.386 375.93 769.265 369.06 774.638 L 363.717 844.791 Z " fill="rgb(247,214,99)"/></g></svg>