<?xml version="1.0" encoding="utf-8"?>
<!-- Generator: Adobe Illustrator 22.1.0, SVG Export Plug-In . SVG Version: 6.00 Build 0)  -->
<svg version="1.1" id="Layer_1" xmlns="http://www.w3.org/2000/svg" xmlns:xlink="http://www.w3.org/1999/xlink" x="0px" y="0px"
	 viewBox="0 142 1000 1000" style="transform: rotate(-15deg);" xml:space="preserve" fill='#f7d663'>
<path d="M212.3,382.1l3.7,37.2l111.4,67c1.6-0.5,3.2-1,4.8-1.5c-1.5-6.6-2.8-13-3.9-19.4L212.3,382.1z M459.8,218l16.5,148.1
	c8.1,6.3,16.3,13.3,24.5,21c7.8-7.3,15.6-14,23.3-20.2L540.7,218l-40.2-45.5L459.8,218z M260.6,516l-76.4-20l-28.9,23.3l81.4,14.4
	C244.1,527.1,252.1,521.2,260.6,516z M355.8,330.8c0.5-0.3,0.9-0.5,1.4-0.8L338,297.3l-36.9-4l37.7,53.9
	C343.1,340.4,348.9,334.8,355.8,330.8z M324.9,442.4c-3.1-28.9-1.8-54.1,4.1-73.8l-57.5-72l-60.6-3.7l3.3,61L324.9,442.4z
	 M414.7,265.5l18,72.5c8.5,4.3,16.7,9.1,24.6,14.4l-19-115.8L414.7,265.5z M568.4,337.8l18.8-72.4L564,236.5l-20.4,116
	C551.5,347.1,559.8,342.2,568.4,337.8z M764.7,533.1l82-13.5L817.7,496l-77.4,19.3C749,520.5,757.1,526.5,764.7,533.1z M221.7,614.1
	c-7.2-10.3-11-21-11-31.9c0-10.3,3.4-20.5,9.9-30.2l-83.9-9.4l-45.5,40.2l45.4,40.8L221.7,614.1z M673.4,464.1
	c-1.2,6.7-2.5,13.6-4.1,20.6l3.4,1l113.3-66.4l4-36.9L673.4,464.1z M791.3,582.2c0,10.4-3.5,20.6-10.1,30.5l84,9.4l45.5-40.2
	l-45.5-40.8l-84.8,9.5C787.5,560.8,791.3,571.4,791.3,582.2z M662.7,347.1l38.4-53.6l-37.1,3.8l-19.5,32.5l0.9,0.5
	C652.4,334.4,658.3,340.2,662.7,347.1z M676.6,440.7l110-87.9l3.7-60.6l-61,3.3L672,367.4C678,386.8,679.5,411.9,676.6,440.7z
	 M446.5,167.3l54.3-39.5l54.3,39.5l-20.8-63.9l54.3-39.5h-67.2L500.9,0l-20.8,63.9h-67.2l54.3,39.5L446.5,167.3z M677.3,722.6
	c3.1,28.9,1.7,54.1-4.3,73.6l57.4,71.9l60.6,3.7l-3.3-61L677.3,722.6z M656.6,671.6c67.4-20.8,111.5-54.3,111.5-89.5
	c0-35.4-44.3-68.9-112.2-89.7c15.7-69.2,8.7-124.3-22-141.9c-7-4.1-15.3-6.1-24.2-6.1v-0.1c-29.9,0-69.1,21.3-108.7,58.3
	c-39.6-36.8-78.8-57.9-108.7-57.9v0.1c-9.1,0-17.4,2-24.6,6.1c-30.6,17.6-37.4,72.6-21.7,141.6c-67.7,20.9-111.7,54.3-111.7,89.6
	s44.3,68.9,112.1,89.7c-15.7,69.2-8.7,124.3,22,141.9c7.1,4.1,15.3,6.1,24.5,6.1c29.9,0,69.1-21.3,108.7-58.3
	c39.6,36.8,78.8,57.9,108.7,57.9c9.1,0,17.4-2,24.6-6.1C665.6,795.6,672.4,740.6,656.6,671.6z M609.6,368.6v0.1
	c4.3-0.1,8.6,0.8,12.4,2.8c14.8,8.5,21.2,40.8,16.2,82.4c-1.2,10.2-3.2,21-5.5,32c-22.7-5.5-45.8-9.5-69-11.9
	c-13.9-19.1-29-37.3-45.3-54.4C553.7,386.7,587,368.7,609.6,368.6z M404.9,637.8c5.1,8.7,10.3,17.2,15.7,25.5
	c-15.4-2.3-30.3-5.1-44.6-8.6c4-14,9-28.5,14.7-43C395.1,620.4,399.8,629.1,404.9,637.8z M375.7,509.5c14.2-3.4,29.2-6.3,44.8-8.6
	c-5.3,8.4-10.7,17-15.7,25.8c-5,8.8-9.7,17.4-14.1,26.1C384.8,538.2,379.8,523.7,375.7,509.5z M403.4,582.4
	c6.7-14.6,14.4-29.2,22.5-43.4c8.5-14.7,17.2-28.6,26.2-41.6c16.2-1.4,32.6-2.2,49.2-2.2s32.8,0.8,49,2.1
	c9,12.9,17.8,26.7,26.3,41.3c8.3,14.3,15.8,28.7,22.6,43.3c-6.8,14.6-14.3,29.2-22.5,43.4c-8.5,14.7-17.2,28.6-26.2,41.6
	c-16.2,1.4-32.6,2.2-49.2,2.2s-32.8-0.8-49-2.1c-9-13-17.8-26.8-26.3-41.4C417.7,611.5,410.2,597,403.4,582.4z M597.7,637.5
	c5-8.8,9.7-17.5,14.1-26.2v0c5.9,14.6,10.9,29.2,15,43.3c-14.2,3.5-29.3,6.5-44.8,8.7C587.3,654.9,592.7,646.3,597.7,637.5z
	 M597.5,526.4c-5.1-8.7-10.3-17.2-15.7-25.5c15.4,2.3,30.3,5.1,44.6,8.6c-4,14-9,28.5-14.7,43C607.3,543.8,602.7,535.1,597.5,526.4z
	 M501,436.8c10.7,11.1,20.8,22.7,30.2,34.8c-9.8-0.4-19.8-0.8-29.9-0.8c-10.1,0-20.3,0.2-30.2,0.8
	C480.4,459.5,490.4,447.9,501,436.8L501,436.8z M379.9,372c3.3-2,7.5-2.8,12.5-2.8V369c22.5,0,55.9,18,91.4,50.7
	c-16.2,17-31.2,35.2-44.9,54.3c-23.3,2.4-46.4,6.4-69.2,12c-2.5-10.9-4.4-21.4-5.7-31.6C358.9,412.9,365.2,380.6,379.9,372z
	 M352.5,648.2c-10.8-3.3-21-7-30.5-11.1c-38.5-16.4-63.4-38-63.4-55.1s24.9-38.7,63.4-55.1c9.4-4,19.6-7.6,30.1-11
	c6.7,22.6,14.8,44.8,24.5,66.3C367.1,603.7,359,625.7,352.5,648.2z M392.8,795.5c-4.3,0.1-8.5-0.9-12.3-2.9h0
	c-14.8-8.5-21.2-40.8-16.2-82.4c1.2-10.2,3.2-21,5.5-32c22.7,5.5,45.8,9.4,69.1,11.9c13.9,19.1,29,37.3,45.3,54.4
	C448.7,777.5,415.4,795.5,392.8,795.5z M501.5,727.3L501.5,727.3c-10.7-11.1-20.8-22.7-30.2-34.8c9.8,0.4,19.8,0.8,29.9,0.8
	c10.1,0,20.3-0.2,30.2-0.8C522.1,704.7,512.1,716.3,501.5,727.3z M622.6,792.2c-3.3,2-7.5,2.8-12.5,2.8c-22.5,0-55.9-18-91.4-50.7
	c16.2-17.1,31.2-35.2,45-54.3c23.3-2.4,46.4-6.4,69.2-12c2.4,10.5,4.3,21.1,5.7,31.7l0,0C643.6,751.3,637.3,783.6,622.6,792.2z
	 M625.8,581.9c9.6-21.4,17.6-43.4,24.2-65.9c10.8,3.4,21,7.1,30.6,11.1c38.4,16.4,63.4,38,63.4,55.1s-25.1,38.7-63.6,55.1l0,0
	c-9.3,4-19.6,7.6-30.1,11C643.6,625.5,635.4,603.4,625.8,581.9z M501.2,631.8c27.5,0,49.7-22.3,49.7-49.7s-22.3-49.7-49.7-49.7
	c-27.5,0-49.7,22.3-49.7,49.7S473.7,631.8,501.2,631.8z M789.7,782.5l-3.8-37.2l-111.6-67.1l-4.4,1.4c1.5,6.7,2.9,13.3,4,19.8
	L789.7,782.5z M108.7,896.6l-20.8-63.9l-20.8,63.9H0l54.3,39.5L33.6,1000l54.3-39.5l54.3,39.5l-20.8-63.9l54.3-39.5H108.7z
	 M1000,896h-67.2l-20.8-63.9L891.3,896h-67.2l54.3,39.5l-20.8,63.9l54.4-39.5l54.3,39.5l-20.8-63.9L1000,896z M646.4,833.7
	c-0.5,0.3-1.1,0.6-1.7,0.9l19.3,32.8l36.9,4l-37.7-53.8C658.9,824.2,653.2,829.7,646.4,833.7z M544.5,811.8l19.1,116.4l23.6-29
	l-18.2-73C560.6,821.9,552.4,817.1,544.5,811.8z M765.1,631c-7.4,6.6-15.4,12.5-23.9,17.7l76.5,20l28.9-23.2L765.1,631z
	 M328.5,700.6c1.2-6.8,2.6-13.7,4.2-20.8l-3.2-1L216,745.4l-4,36.9L328.5,700.6z M237.5,631.5L155.3,645l28.9,23.6l77.6-19.3
	C253.2,644.1,245,638.1,237.5,631.5z M325.3,724l-110,87.9l-3.7,60.6l61-3.3l57.4-71.9C323.9,777.8,322.4,752.7,325.3,724z
	 M339.3,817.5l-38.5,53.7l37.2-3.8l19.6-32.7l-1-0.6C349.6,830.1,343.7,824.3,339.3,817.5z M501.5,777.3
	c-7.9,7.4-15.7,14.1-23.5,20.3l-16.7,149l40.2,45.5l40.8-45.5l-16.6-148.6C517.6,791.8,509.6,784.9,501.5,777.3z M414.7,899.2
	l23.3,29L458.4,812c-7.9,5.4-16.2,10.3-24.8,14.6L414.7,899.2z"/>
</svg>
