<?xml version="1.0" encoding="utf-8"?>
<!-- Generator: Adobe Illustrator 24.0.0, SVG Export Plug-In . SVG Version: 6.00 Build 0)  -->
<svg version="1.1" id="Component_1_1" xmlns="http://www.w3.org/2000/svg" xmlns:xlink="http://www.w3.org/1999/xlink" x="0px"
	 y="0px" viewBox="0 0 565 159" style="enable-background:new 0 0 565 159;" xml:space="preserve">
<style type="text/css">
	.st0{clip-path:url(#SVGID_2_);}
	.st1{fill:#F7D663;}
	.st2{fill-rule:evenodd;clip-rule:evenodd;fill:#F7D663;}
	.st3{enable-background:new    ;}
	.st4{fill:#7BD5F5;}
</style>
<g>
	<defs>
		<rect id="SVGID_1_" y="8" width="136" height="136"/>
	</defs>
	<clipPath id="SVGID_2_">
		<use xlink:href="#SVGID_1_"  style="overflow:visible;"/>
	</clipPath>
	<g id="reactjs-ph_blue_-edited" transform="translate(0 8)" class="st0">
		<g id="Group_30">
			<path id="Path_68" class="st1" d="M56.2,8.7h23.9L60.7,22.8L68.1,0l7.4,22.8L56.2,8.7z"/>
			<path id="Path_69" class="st1" d="M112.1,121.9H136l-19.3,14.1l7.4-22.8l7.4,22.8L112.1,121.9L112.1,121.9z"/>
			<path id="Path_70" class="st1" d="M0,121.9h23.9L4.6,136l7.4-22.8l7.4,22.8L0,121.9z"/>
			<path id="Path_71" class="st2" d="M104.5,79.2c0-4.8-6-9.4-15.3-12.2c2.1-9.4,1.2-16.9-3-19.3c-1-0.6-2.2-0.9-3.3-0.8v3.3
				c0.6,0,1.2,0.1,1.7,0.4c2,1.2,2.9,5.6,2.2,11.2c-0.2,1.4-0.4,2.9-0.8,4.4c-3.1-0.7-6.2-1.3-9.4-1.6c-1.9-2.6-3.9-5.1-6.2-7.4
				c4.8-4.5,9.4-6.9,12.4-6.9v-3.3l0,0c-4.1,0-9.4,2.9-14.8,7.9c-5.4-5-10.7-7.9-14.8-7.9v3.3c3.1,0,7.6,2.4,12.4,6.9
				c-2.2,2.3-4.2,4.8-6.1,7.4c-3.2,0.3-6.3,0.9-9.4,1.6c-0.3-1.5-0.6-2.9-0.8-4.3c-0.7-5.7,0.2-10,2.2-11.2c0.5-0.3,1.1-0.4,1.7-0.4
				v-3.3l0,0c-1.2,0-2.3,0.3-3.3,0.8c-4.2,2.4-5.1,9.9-2.9,19.3c-9.2,2.8-15.2,7.4-15.2,12.2s6,9.4,15.3,12.2
				c-2.1,9.4-1.2,16.9,3,19.3c1,0.6,2.2,0.9,3.3,0.8c4.1,0,9.4-2.9,14.8-7.9c5.4,5,10.7,7.9,14.8,7.9c1.2,0,2.3-0.3,3.3-0.8
				c4.2-2.4,5.1-9.9,2.9-19.3C98.5,88.5,104.5,84,104.5,79.2z M85.2,69.3c-0.5,1.9-1.2,3.9-2,5.8c-0.6-1.2-1.2-2.4-1.9-3.6
				s-1.4-2.3-2.1-3.5C81.2,68.4,83.3,68.8,85.2,69.3L85.2,69.3z M78.4,85c-1.2,2-2.3,3.9-3.6,5.7c-2.2,0.2-4.4,0.3-6.7,0.3
				s-4.5-0.1-6.7-0.3c-1.2-1.8-2.4-3.6-3.6-5.6c-1.1-1.9-2.1-3.9-3.1-5.9c0.9-2,2-4,3.1-5.9c1.2-2,2.3-3.9,3.6-5.7
				c2.2-0.2,4.4-0.3,6.7-0.3s4.5,0.1,6.7,0.3c1.2,1.8,2.4,3.6,3.6,5.6c1.1,1.9,2.2,3.9,3.1,5.9C80.6,81.1,79.5,83.1,78.4,85L78.4,85
				z M83.2,83.1c0.8,2,1.5,4,2,5.9c-1.9,0.5-4,0.9-6.1,1.2c0.7-1.1,1.4-2.3,2.1-3.5S82.6,84.3,83.2,83.1L83.2,83.1z M68.2,98.9
				c-1.5-1.5-2.8-3.1-4.1-4.7c1.3,0.1,2.7,0.1,4.1,0.1s2.8,0,4.1-0.1C71,95.8,69.6,97.4,68.2,98.9L68.2,98.9z M57.2,90.2
				c-2.1-0.3-4.1-0.7-6.1-1.2c0.5-1.9,1.2-3.9,2-5.8c0.6,1.2,1.2,2.4,1.9,3.6S56.5,89.1,57.2,90.2L57.2,90.2z M68.1,59.4
				c1.5,1.5,2.8,3.1,4.1,4.7c-1.3-0.1-2.7-0.1-4.1-0.1s-2.8,0-4.1,0.1C65.3,62.5,66.7,60.9,68.1,59.4L68.1,59.4z M57.2,68.1
				c-0.7,1.1-1.4,2.3-2.1,3.5s-1.3,2.4-1.9,3.6c-0.8-2-1.5-4-2-5.9C53,68.8,55.1,68.4,57.2,68.1L57.2,68.1z M43.8,86.7
				c-5.2-2.2-8.6-5.2-8.6-7.5s3.4-5.3,8.6-7.5c1.3-0.5,2.7-1,4.1-1.5c0.9,3.1,2,6.1,3.3,9c-1.3,2.9-2.4,5.9-3.3,9
				C46.5,87.7,45.1,87.2,43.8,86.7L43.8,86.7z M51.8,107.8c-2-1.2-2.9-5.6-2.2-11.2c0.2-1.4,0.4-2.9,0.8-4.4
				c3.1,0.7,6.2,1.3,9.4,1.6c1.9,2.6,3.9,5.1,6.2,7.4c-4.8,4.5-9.4,6.9-12.4,6.9C52.9,108.2,52.3,108.1,51.8,107.8L51.8,107.8z
				 M86.8,96.5c0.7,5.7-0.2,10-2.2,11.2c-0.5,0.3-1.1,0.4-1.7,0.4c-3.1,0-7.6-2.4-12.4-6.9c2.2-2.3,4.2-4.8,6.1-7.4
				c3.2-0.3,6.3-0.9,9.4-1.6C86.4,93.6,86.7,95.1,86.8,96.5L86.8,96.5z M92.5,86.7c-1.3,0.5-2.7,1-4.1,1.5c-0.9-3.1-2-6.1-3.3-9
				c1.3-2.9,2.4-5.9,3.3-9c1.5,0.5,2.9,1,4.2,1.5c5.2,2.2,8.6,5.2,8.6,7.5S97.8,84.4,92.5,86.7L92.5,86.7z M61.4,79.2
				c0-3.7,3-6.8,6.8-6.8c3.7,0,6.8,3,6.8,6.8c0,3.7-3,6.8-6.8,6.8C64.4,85.9,61.4,82.9,61.4,79.2z M71.3,49.9l2.3-20.2l-5.5-6.2
				l-5.5,6.2l2.2,20.1c1.1,0.9,2.2,1.8,3.3,2.8C69.2,51.6,70.2,50.7,71.3,49.9L71.3,49.9z M59.6,32.2l-3.2,3.9l2.4,9.9
				c1.2,0.6,2.3,1.2,3.3,2L59.6,32.2z M79.9,36.1l-3.2-3.9l-2.8,15.8c1.1-0.7,2.2-1.4,3.4-2L79.9,36.1z M76.7,126.2l3.2-3.9
				l-2.5-9.9c-1.2-0.6-2.3-1.2-3.3-2L76.7,126.2z M65,108.5l-2.3,20.3l5.5,6.2l5.5-6.2l-2.3-20.2c-1.1-0.9-2.2-1.8-3.3-2.8
				C67.1,106.7,66.1,107.6,65,108.5L65,108.5z M56.4,122.3l3.2,3.9l2.8-15.8c-1.1,0.7-2.2,1.4-3.4,2L56.4,122.3z M111.2,90.9
				l3.9-3.2l-11.1-2c-1,0.9-2.1,1.7-3.2,2.4L111.2,90.9z M115.1,70.7l-3.9-3.2l-10.5,2.6c1.2,0.7,2.3,1.5,3.3,2.4L115.1,70.7z
				 M106.2,83.3l11.4,1.3l6.2-5.5l-6.2-5.5l-11.5,1.3C108.1,77.3,108.1,80.8,106.2,83.3L106.2,83.3z M30,75.1l-11.4-1.3l-6.2,5.5
				l6.2,5.5l11.6-1.3c-0.9-1.3-1.5-2.8-1.5-4.3C28.7,77.7,29.2,76.3,30,75.1L30,75.1z M21.1,87.7l3.9,3.2l10.6-2.6
				c-1.2-0.7-2.3-1.5-3.3-2.4L21.1,87.7z M25.1,67.5l-3.9,3.2l11.1,2c1-0.9,2.1-1.7,3.2-2.4L25.1,67.5z M44.6,63.3L28.9,52l0.5,5.1
				l15.2,9.1c0.2-0.1,0.4-0.1,0.7-0.2C45,65,44.8,64.2,44.6,63.3L44.6,63.3z M48.4,45c0.1,0,0.1-0.1,0.2-0.1L46,40.4l-5-0.5l5.1,7.3
				C46.7,46.3,47.4,45.5,48.4,45L48.4,45z M44.7,50.1l-7.8-9.8l-8.2-0.5l0.5,8.3l15.1,12C43.7,56.8,43.9,53.4,44.7,50.1L44.7,50.1z
				 M91.7,95.1l15.7,11.3l-0.5-5.1l-15.2-9.1l-0.6,0.2C91.3,93.4,91.5,94.2,91.7,95.1z M87.9,113.4c-0.1,0-0.2,0.1-0.2,0.1l2.6,4.5
				l5,0.5l-5.1-7.3C89.6,112.1,88.8,112.8,87.9,113.4L87.9,113.4z M91.5,108.3l7.8,9.8l8.2,0.5l-0.5-8.3l-15-12
				C92.6,101.6,92.4,105,91.5,108.3L91.5,108.3z M90.1,47.2l5.2-7.3l-5,0.5l-2.7,4.4l0.1,0.1C88.7,45.5,89.5,46.3,90.1,47.2
				L90.1,47.2z M91.5,66.1l15.4-9l0.5-5L91.6,63.1C91.4,64,91.2,65,91,65.9L91.5,66.1z M92,59.9l15-12l0.5-8.2l-8.3,0.5L91.4,50
				C92.2,53.2,92.5,56.6,92,59.9L92,59.9z M46.1,111.2l-5.2,7.3L46,118l2.7-4.4l-0.1-0.1C47.5,112.9,46.7,112.1,46.1,111.2z
				 M44.2,98.5l-15,11.9l-0.5,8.2l8.3-0.5l7.8-9.8C44,105.2,43.8,101.8,44.2,98.5z M44.8,92.3l-15.4,9.1l-0.5,5l15.9-11.1
				c0.2-0.9,0.3-1.9,0.6-2.8L44.8,92.3z"/>
		</g>
	</g>
</g>
<g class="st3">
	<path class="st4" d="M160.8,19.6h18.4c2.4,0,4.7,0.2,6.9,0.7c2.2,0.5,4.1,1.3,5.7,2.3c1.6,1.1,2.9,2.6,3.9,4.4
		c1,1.9,1.4,4.2,1.4,6.9c0,3.4-0.9,6.2-2.6,8.5c-1.7,2.3-4.3,3.8-7.6,4.5l12.1,20h-12.5l-9.9-19h-5.2v19h-10.5V19.6z M171.3,39.2
		h6.2c0.9,0,1.9,0,3-0.1c1-0.1,2-0.3,2.8-0.6c0.8-0.3,1.6-0.9,2.1-1.6c0.6-0.7,0.8-1.7,0.8-3c0-1.2-0.2-2.2-0.7-2.9
		c-0.5-0.7-1.1-1.3-1.9-1.6c-0.8-0.4-1.6-0.6-2.6-0.8c-1-0.1-1.9-0.2-2.9-0.2h-6.8V39.2z"/>
	<path class="st4" d="M204.7,19.6h32.2v9.6h-21.8v8.8h20.6v9.6h-20.6v9.6h23V67h-33.4V19.6z"/>
	<path class="st4" d="M262.1,19.6h8.6L291.4,67h-11.8l-4.1-10h-18.4l-4,10h-11.5L262.1,19.6z M266.1,33.4l-5.8,14.7h11.6L266.1,33.4
		z"/>
	<path class="st4" d="M327.1,31.9c-1-1.2-2.3-2.2-3.8-2.9c-1.5-0.7-3.2-1-5.2-1c-2,0-3.8,0.4-5.5,1.1c-1.7,0.8-3.1,1.8-4.4,3.2
		c-1.2,1.4-2.2,3-2.9,4.9c-0.7,1.9-1,3.9-1,6.1c0,2.2,0.3,4.3,1,6.1c0.7,1.9,1.6,3.5,2.8,4.8c1.2,1.4,2.6,2.4,4.3,3.2
		c1.6,0.8,3.4,1.1,5.3,1.1c2.1,0,4-0.4,5.7-1.3c1.7-0.9,3-2.1,4.1-3.8l8.7,6.5c-2,2.8-4.6,4.9-7.6,6.2c-3.1,1.3-6.3,2-9.5,2
		c-3.7,0-7.1-0.6-10.3-1.7c-3.1-1.2-5.8-2.8-8.1-5c-2.3-2.2-4.1-4.8-5.3-7.9c-1.3-3.1-1.9-6.5-1.9-10.3c0-3.8,0.6-7.2,1.9-10.3
		c1.3-3.1,3-5.7,5.3-7.9c2.3-2.2,5-3.8,8.1-5c3.1-1.2,6.5-1.7,10.3-1.7c1.3,0,2.7,0.1,4.2,0.4c1.5,0.2,2.9,0.6,4.3,1.2
		c1.4,0.5,2.8,1.3,4.1,2.1c1.3,0.9,2.5,2,3.5,3.3L327.1,31.9z"/>
	<path class="st4" d="M351.2,28.8h-13.5v-9.2h37.5v9.2h-13.5V67h-10.5V28.8z"/>
	<path class="st4" d="M405,51.1c0,2.2-0.2,4.3-0.6,6.4c-0.4,2.1-1.1,3.9-2.2,5.5c-1.1,1.6-2.6,2.9-4.6,3.8s-4.6,1.4-7.8,1.4
		c-3.8,0-6.9-0.9-9.5-2.7c-2.6-1.8-4.3-4.6-5-8.4l9.6-2.3c0.1,1.2,0.7,2.1,1.6,2.9c0.9,0.8,2,1.2,3.1,1.2c1.2,0,2.1-0.3,2.8-0.9
		c0.7-0.6,1.2-1.4,1.5-2.2c0.3-0.9,0.5-1.9,0.6-2.9c0.1-1,0.1-2,0.1-2.9V19.6H405V51.1z"/>
	<path class="st4" d="M437.4,31.2c-0.8-1.1-2-1.9-3.5-2.4c-1.5-0.5-2.8-0.8-4.1-0.8c-0.8,0-1.5,0.1-2.3,0.3
		c-0.8,0.2-1.6,0.5-2.3,0.8c-0.7,0.4-1.3,0.9-1.7,1.5c-0.4,0.6-0.7,1.4-0.7,2.3c0,1.4,0.5,2.5,1.6,3.3c1.1,0.8,2.4,1.4,4.1,1.9
		c1.6,0.5,3.4,1.1,5.3,1.6c1.9,0.5,3.6,1.3,5.3,2.3c1.6,1,3,2.3,4.1,4c1.1,1.7,1.6,3.9,1.6,6.6c0,2.6-0.5,4.9-1.5,6.9
		c-1,2-2.3,3.6-4,4.9c-1.7,1.3-3.6,2.3-5.8,2.9c-2.2,0.6-4.5,0.9-7,0.9c-3.1,0-5.9-0.5-8.6-1.4c-2.6-0.9-5.1-2.5-7.4-4.6l7.4-8.2
		c1.1,1.4,2.4,2.5,4.1,3.3c1.6,0.8,3.3,1.2,5.1,1.2c0.8,0,1.7-0.1,2.6-0.3c0.9-0.2,1.7-0.5,2.3-0.9c0.7-0.4,1.2-0.9,1.7-1.5
		c0.4-0.6,0.6-1.4,0.6-2.2c0-1.4-0.5-2.6-1.6-3.4c-1.1-0.8-2.5-1.5-4.1-2.1c-1.7-0.6-3.4-1.2-5.4-1.7c-1.9-0.6-3.7-1.4-5.4-2.3
		c-1.7-1-3-2.3-4.1-3.9c-1.1-1.6-1.6-3.7-1.6-6.4c0-2.5,0.5-4.8,1.5-6.7c1-1.9,2.3-3.5,4-4.8c1.7-1.3,3.6-2.3,5.8-2.9
		c2.2-0.6,4.4-1,6.8-1c2.7,0,5.3,0.4,7.8,1.1c2.5,0.8,4.8,2,6.8,3.8L437.4,31.2z"/>
</g>
<g class="st3">
	<path class="st1" d="M160.8,86.6h17.6c2.5,0,4.8,0.2,7,0.7c2.2,0.4,4.1,1.2,5.7,2.3c1.6,1.1,2.9,2.6,3.9,4.4c1,1.9,1.4,4.2,1.4,7
		c0,2.8-0.4,5.1-1.3,7c-0.9,1.9-2.1,3.4-3.7,4.5c-1.6,1.1-3.4,1.9-5.6,2.4s-4.5,0.7-7,0.7h-7.6V134h-10.5V86.6z M171.3,106.7h7
		c0.9,0,1.8-0.1,2.7-0.3s1.7-0.5,2.3-0.9c0.7-0.4,1.2-1,1.7-1.7c0.4-0.7,0.6-1.7,0.6-2.8c0-1.2-0.3-2.2-0.8-2.9
		c-0.6-0.7-1.3-1.3-2.1-1.7c-0.9-0.4-1.8-0.7-2.9-0.8c-1.1-0.1-2.1-0.2-3.1-0.2h-5.4V106.7z"/>
	<path class="st1" d="M203.1,86.6h10.5v17.7h20.3V86.6h10.5V134h-10.5v-20.5h-20.3V134h-10.5V86.6z"/>
	<path class="st1" d="M253.8,86.6h10.5V134h-10.5V86.6z"/>
	<path class="st1" d="M274.1,86.6h10.5v37.8H304v9.6h-29.8V86.6z"/>
	<path class="st1" d="M309.6,86.6H320V134h-10.5V86.6z"/>
	<path class="st1" d="M329.6,86.6h17.6c2.5,0,4.8,0.2,7,0.7c2.2,0.4,4.1,1.2,5.7,2.3c1.6,1.1,2.9,2.6,3.9,4.4c1,1.9,1.4,4.2,1.4,7
		c0,2.8-0.4,5.1-1.3,7c-0.9,1.9-2.1,3.4-3.7,4.5c-1.6,1.1-3.4,1.9-5.6,2.4c-2.1,0.5-4.5,0.7-7,0.7H340V134h-10.5V86.6z M340,106.7h7
		c0.9,0,1.8-0.1,2.7-0.3s1.7-0.5,2.3-0.9c0.7-0.4,1.2-1,1.7-1.7c0.4-0.7,0.6-1.7,0.6-2.8c0-1.2-0.3-2.2-0.8-2.9
		c-0.6-0.7-1.3-1.3-2.1-1.7c-0.9-0.4-1.8-0.7-2.9-0.8c-1.1-0.1-2.1-0.2-3.1-0.2H340V106.7z"/>
	<path class="st1" d="M371.8,86.6h17.6c2.5,0,4.8,0.2,7,0.7s4.1,1.2,5.7,2.3c1.6,1.1,2.9,2.6,3.9,4.4c1,1.9,1.4,4.2,1.4,7
		c0,2.8-0.4,5.1-1.3,7c-0.9,1.9-2.1,3.4-3.7,4.5c-1.6,1.1-3.4,1.9-5.6,2.4c-2.1,0.5-4.5,0.7-7,0.7h-7.6V134h-10.5V86.6z
		 M382.2,106.7h7c0.9,0,1.8-0.1,2.7-0.3s1.7-0.5,2.3-0.9c0.7-0.4,1.2-1,1.7-1.7c0.4-0.7,0.6-1.7,0.6-2.8c0-1.2-0.3-2.2-0.8-2.9
		c-0.6-0.7-1.3-1.3-2.1-1.7c-0.9-0.4-1.8-0.7-2.9-0.8c-1.1-0.1-2.1-0.2-3.1-0.2h-5.4V106.7z"/>
	<path class="st1" d="M413.8,86.6h10.5V134h-10.5V86.6z"/>
	<path class="st1" d="M433.8,86.6H448l20.2,33h0.1v-33h10.5V134h-13.7l-20.7-33.8h-0.1V134h-10.5V86.6z"/>
	<path class="st1" d="M488.8,86.6H521v9.6h-21.8v8.8h20.6v9.6h-20.6v9.6h23v9.6h-33.4V86.6z"/>
	<path class="st1" d="M554.1,98.2c-0.8-1.1-2-1.9-3.5-2.4c-1.5-0.5-2.8-0.8-4.1-0.8c-0.8,0-1.5,0.1-2.3,0.3
		c-0.8,0.2-1.6,0.5-2.3,0.8c-0.7,0.4-1.3,0.9-1.7,1.5c-0.4,0.6-0.7,1.4-0.7,2.3c0,1.4,0.5,2.5,1.6,3.3c1.1,0.8,2.4,1.4,4.1,1.9
		c1.6,0.5,3.4,1.1,5.3,1.6c1.9,0.5,3.6,1.3,5.3,2.3c1.6,1,3,2.3,4.1,4c1.1,1.7,1.6,3.9,1.6,6.6c0,2.6-0.5,4.9-1.5,6.9
		c-1,2-2.3,3.6-4,4.9c-1.7,1.3-3.6,2.3-5.8,2.9c-2.2,0.6-4.5,0.9-7,0.9c-3.1,0-5.9-0.5-8.6-1.4c-2.6-0.9-5.1-2.5-7.4-4.6l7.4-8.2
		c1.1,1.4,2.4,2.5,4.1,3.3c1.6,0.8,3.3,1.2,5.1,1.2c0.8,0,1.7-0.1,2.6-0.3c0.9-0.2,1.7-0.5,2.3-0.9c0.7-0.4,1.2-0.9,1.7-1.5
		c0.4-0.6,0.6-1.4,0.6-2.2c0-1.4-0.5-2.6-1.6-3.4c-1.1-0.8-2.5-1.5-4.1-2.1c-1.7-0.6-3.4-1.2-5.4-1.7c-1.9-0.6-3.7-1.4-5.4-2.3
		c-1.7-1-3-2.3-4.1-3.9c-1.1-1.6-1.6-3.7-1.6-6.4c0-2.5,0.5-4.8,1.5-6.7c1-1.9,2.3-3.5,4-4.8c1.7-1.3,3.6-2.3,5.8-2.9
		c2.2-0.6,4.4-1,6.8-1c2.7,0,5.3,0.4,7.8,1.1c2.5,0.8,4.8,2,6.8,3.8L554.1,98.2z"/>
</g>
</svg>
