<?xml version="1.0" encoding="utf-8"?>
<!-- Generator: Adobe Illustrator 24.0.0, SVG Export Plug-In . SVG Version: 6.00 Build 0)  -->
<svg version="1.1" id="Component_1_1" xmlns="http://www.w3.org/2000/svg" xmlns:xlink="http://www.w3.org/1999/xlink" x="0px"
	 y="0px" viewBox="0 0 565 159" style="enable-background:new 0 0 565 159;" xml:space="preserve">
<style type="text/css">
	.st0{fill:#F7D663;}
	.st1{fill-rule:evenodd;clip-rule:evenodd;fill:#F7D663;}
	.st2{enable-background:new    ;}
	.st3{fill:#7BD5F5;}
</style>
<g>
	<g>
		<defs>
			<rect id="SVGID_1_" y="16" width="136" height="136"/>
		</defs>
		<clipPath id="SVGID_2_">
			<use xlink:href="#SVGID_1_"  style="overflow:visible;"/>
		</clipPath>
	</g>
	<g id="Group_30">
		<path id="Path_68" class="st0" d="M56.2,16.7h23.9L60.7,30.8L68.1,8l7.4,22.8L56.2,16.7z"/>
		<path id="Path_69" class="st0" d="M112.1,129.9H136L116.7,144l7.4-22.8l7.4,22.8L112.1,129.9L112.1,129.9z"/>
		<path id="Path_70" class="st0" d="M0,129.9h23.9L4.6,144l7.4-22.8l7.4,22.8L0,129.9z"/>
		<path id="Path_71" class="st1" d="M104.5,87.2c0-4.8-6-9.4-15.3-12.2c2.1-9.4,1.2-16.9-3-19.3c-1-0.6-2.2-0.9-3.3-0.8v3.3
			c0.6,0,1.2,0.1,1.7,0.4c2,1.2,2.9,5.6,2.2,11.2c-0.2,1.4-0.4,2.9-0.8,4.4c-3.1-0.7-6.2-1.3-9.4-1.6c-1.9-2.6-3.9-5.1-6.2-7.4
			c4.8-4.5,9.4-6.9,12.4-6.9V55l0,0c-4.1,0-9.4,2.9-14.8,7.9c-5.4-5-10.7-7.9-14.8-7.9v3.3c3.1,0,7.6,2.4,12.4,6.9
			c-2.2,2.3-4.2,4.8-6.1,7.4c-3.2,0.3-6.3,0.9-9.4,1.6c-0.3-1.5-0.6-2.9-0.8-4.3c-0.7-5.7,0.2-10,2.2-11.2c0.5-0.3,1.1-0.4,1.7-0.4
			V55l0,0c-1.2,0-2.3,0.3-3.3,0.8c-4.2,2.4-5.1,9.9-2.9,19.3c-9.2,2.8-15.2,7.4-15.2,12.2s6,9.4,15.3,12.2c-2.1,9.4-1.2,16.9,3,19.3
			c1,0.6,2.2,0.9,3.3,0.8c4.1,0,9.4-2.9,14.8-7.9c5.4,5,10.7,7.9,14.8,7.9c1.2,0,2.3-0.3,3.3-0.8c4.2-2.4,5.1-9.9,2.9-19.3
			C98.5,96.5,104.5,92,104.5,87.2z M85.2,77.3c-0.5,1.9-1.2,3.9-2,5.8c-0.6-1.2-1.2-2.4-1.9-3.6s-1.4-2.3-2.1-3.5
			C81.2,76.4,83.3,76.8,85.2,77.3L85.2,77.3z M78.4,93c-1.2,2-2.3,3.9-3.6,5.7c-2.2,0.2-4.4,0.3-6.7,0.3s-4.5-0.1-6.7-0.3
			c-1.2-1.8-2.4-3.6-3.6-5.6c-1.1-1.9-2.1-3.9-3.1-5.9c0.9-2,2-4,3.1-5.9c1.2-2,2.3-3.9,3.6-5.7c2.2-0.2,4.4-0.3,6.7-0.3
			s4.5,0.1,6.7,0.3c1.2,1.8,2.4,3.6,3.6,5.6c1.1,1.9,2.2,3.9,3.1,5.9C80.6,89.1,79.5,91.1,78.4,93L78.4,93z M83.2,91.1
			c0.8,2,1.5,4,2,5.9c-1.9,0.5-4,0.9-6.1,1.2c0.7-1.1,1.4-2.3,2.1-3.5S82.6,92.3,83.2,91.1L83.2,91.1z M68.2,106.9
			c-1.5-1.5-2.8-3.1-4.1-4.7c1.3,0.1,2.7,0.1,4.1,0.1s2.8,0,4.1-0.1C71,103.8,69.6,105.4,68.2,106.9L68.2,106.9z M57.2,98.2
			c-2.1-0.3-4.1-0.7-6.1-1.2c0.5-1.9,1.2-3.9,2-5.8c0.6,1.2,1.2,2.4,1.9,3.6S56.5,97.1,57.2,98.2L57.2,98.2z M68.1,67.4
			c1.5,1.5,2.8,3.1,4.1,4.7C70.9,72,69.5,72,68.1,72s-2.8,0-4.1,0.1C65.3,70.5,66.7,68.9,68.1,67.4L68.1,67.4z M57.2,76.1
			c-0.7,1.1-1.4,2.3-2.1,3.5s-1.3,2.4-1.9,3.6c-0.8-2-1.5-4-2-5.9C53,76.8,55.1,76.4,57.2,76.1L57.2,76.1z M43.8,94.7
			c-5.2-2.2-8.6-5.2-8.6-7.5s3.4-5.3,8.6-7.5c1.3-0.5,2.7-1,4.1-1.5c0.9,3.1,2,6.1,3.3,9c-1.3,2.9-2.4,5.9-3.3,9
			C46.5,95.7,45.1,95.2,43.8,94.7L43.8,94.7z M51.8,115.8c-2-1.2-2.9-5.6-2.2-11.2c0.2-1.4,0.4-2.9,0.8-4.4c3.1,0.7,6.2,1.3,9.4,1.6
			c1.9,2.6,3.9,5.1,6.2,7.4c-4.8,4.5-9.4,6.9-12.4,6.9C52.9,116.2,52.3,116.1,51.8,115.8L51.8,115.8z M86.8,104.5
			c0.7,5.7-0.2,10-2.2,11.2c-0.5,0.3-1.1,0.4-1.7,0.4c-3.1,0-7.6-2.4-12.4-6.9c2.2-2.3,4.2-4.8,6.1-7.4c3.2-0.3,6.3-0.9,9.4-1.6
			C86.4,101.6,86.7,103.1,86.8,104.5L86.8,104.5z M92.5,94.7c-1.3,0.5-2.7,1-4.1,1.5c-0.9-3.1-2-6.1-3.3-9c1.3-2.9,2.4-5.9,3.3-9
			c1.5,0.5,2.9,1,4.2,1.5c5.2,2.2,8.6,5.2,8.6,7.5S97.8,92.4,92.5,94.7L92.5,94.7z M61.4,87.2c0-3.7,3-6.8,6.8-6.8
			c3.7,0,6.8,3,6.8,6.8c0,3.7-3,6.8-6.8,6.8C64.4,93.9,61.4,90.9,61.4,87.2z M71.3,57.9l2.3-20.2l-5.5-6.2l-5.5,6.2l2.2,20.1
			c1.1,0.9,2.2,1.8,3.3,2.8C69.2,59.6,70.2,58.7,71.3,57.9L71.3,57.9z M59.6,40.2l-3.2,3.9l2.4,9.9c1.2,0.6,2.3,1.2,3.3,2L59.6,40.2
			z M79.9,44.1l-3.2-3.9L73.9,56c1.1-0.7,2.2-1.4,3.4-2L79.9,44.1z M76.7,134.2l3.2-3.9l-2.5-9.9c-1.2-0.6-2.3-1.2-3.3-2L76.7,134.2
			z M65,116.5l-2.3,20.3l5.5,6.2l5.5-6.2l-2.3-20.2c-1.1-0.9-2.2-1.8-3.3-2.8C67.1,114.7,66.1,115.6,65,116.5L65,116.5z M56.4,130.3
			l3.2,3.9l2.8-15.8c-1.1,0.7-2.2,1.4-3.4,2L56.4,130.3z M111.2,98.9l3.9-3.2l-11.1-2c-1,0.9-2.1,1.7-3.2,2.4L111.2,98.9z
			 M115.1,78.7l-3.9-3.2l-10.5,2.6c1.2,0.7,2.3,1.5,3.3,2.4L115.1,78.7z M106.2,91.3l11.4,1.3l6.2-5.5l-6.2-5.5l-11.5,1.3
			C108.1,85.3,108.1,88.8,106.2,91.3L106.2,91.3z M30,83.1l-11.4-1.3l-6.2,5.5l6.2,5.5l11.6-1.3c-0.9-1.3-1.5-2.8-1.5-4.3
			C28.7,85.7,29.2,84.3,30,83.1L30,83.1z M21.1,95.7l3.9,3.2l10.6-2.6c-1.2-0.7-2.3-1.5-3.3-2.4L21.1,95.7z M25.1,75.5l-3.9,3.2
			l11.1,2c1-0.9,2.1-1.7,3.2-2.4L25.1,75.5z M44.6,71.3L28.9,60l0.5,5.1l15.2,9.1c0.2-0.1,0.4-0.1,0.7-0.2
			C45,73,44.8,72.2,44.6,71.3L44.6,71.3z M48.4,53c0.1,0,0.1-0.1,0.2-0.1L46,48.4l-5-0.5l5.1,7.3C46.7,54.3,47.4,53.5,48.4,53
			L48.4,53z M44.7,58.1l-7.8-9.8l-8.2-0.5l0.5,8.3l15.1,12C43.7,64.8,43.9,61.4,44.7,58.1L44.7,58.1z M91.7,103.1l15.7,11.3
			l-0.5-5.1l-15.2-9.1l-0.6,0.2C91.3,101.4,91.5,102.2,91.7,103.1z M87.9,121.4c-0.1,0-0.2,0.1-0.2,0.1l2.6,4.5l5,0.5l-5.1-7.3
			C89.6,120.1,88.8,120.8,87.9,121.4L87.9,121.4z M91.5,116.3l7.8,9.8l8.2,0.5l-0.5-8.3l-15-12C92.6,109.6,92.4,113,91.5,116.3
			L91.5,116.3z M90.1,55.2l5.2-7.3l-5,0.5l-2.7,4.4l0.1,0.1C88.7,53.5,89.5,54.3,90.1,55.2L90.1,55.2z M91.5,74.1l15.4-9l0.5-5
			l-15.8,11C91.4,72,91.2,73,91,73.9L91.5,74.1z M92,67.9l15-12l0.5-8.2l-8.3,0.5L91.4,58C92.2,61.2,92.5,64.6,92,67.9L92,67.9z
			 M46.1,119.2l-5.2,7.3L46,126l2.7-4.4l-0.1-0.1C47.5,120.9,46.7,120.1,46.1,119.2z M44.2,106.5l-15,11.9l-0.5,8.2l8.3-0.5l7.8-9.8
			C44,113.2,43.8,109.8,44.2,106.5z M44.8,100.3l-15.4,9.1l-0.5,5l15.9-11.1c0.2-0.9,0.3-1.9,0.6-2.8L44.8,100.3z"/>
	</g>
</g>
<g class="st2">
	<path class="st3" d="M160.8,19.6h18.4c2.4,0,4.7,0.2,6.9,0.7s4.1,1.3,5.7,2.3c1.6,1.1,2.9,2.6,3.9,4.4c1,1.9,1.4,4.2,1.4,6.9
		c0,3.4-0.9,6.2-2.6,8.5c-1.7,2.3-4.3,3.8-7.6,4.5l12.1,20h-12.5l-9.9-19h-5.2v19h-10.5L160.8,19.6L160.8,19.6z M171.3,39.2h6.2
		c0.9,0,1.9,0,3-0.1c1-0.1,2-0.3,2.8-0.6s1.6-0.9,2.1-1.6c0.6-0.7,0.8-1.7,0.8-3c0-1.2-0.2-2.2-0.7-2.9c-0.5-0.7-1.1-1.3-1.9-1.6
		c-0.8-0.4-1.6-0.6-2.6-0.8c-1-0.1-1.9-0.2-2.9-0.2h-6.8L171.3,39.2L171.3,39.2z"/>
	<path class="st3" d="M204.7,19.6h32.2v9.6h-21.8V38h20.6v9.6h-20.6v9.6h23V67h-33.4L204.7,19.6L204.7,19.6z"/>
	<path class="st3" d="M262.1,19.6h8.6L291.4,67h-11.8l-4.1-10h-18.4l-4,10h-11.5L262.1,19.6z M266.1,33.4l-5.8,14.7h11.6L266.1,33.4
		z"/>
	<path class="st3" d="M327.1,31.9c-1-1.2-2.3-2.2-3.8-2.9c-1.5-0.7-3.2-1-5.2-1s-3.8,0.4-5.5,1.1c-1.7,0.8-3.1,1.8-4.4,3.2
		c-1.2,1.4-2.2,3-2.9,4.9c-0.7,1.9-1,3.9-1,6.1c0,2.2,0.3,4.3,1,6.1c0.7,1.9,1.6,3.5,2.8,4.8c1.2,1.4,2.6,2.4,4.3,3.2
		c1.6,0.8,3.4,1.1,5.3,1.1c2.1,0,4-0.4,5.7-1.3c1.7-0.9,3-2.1,4.1-3.8l8.7,6.5c-2,2.8-4.6,4.9-7.6,6.2c-3.1,1.3-6.3,2-9.5,2
		c-3.7,0-7.1-0.6-10.3-1.7c-3.1-1.2-5.8-2.8-8.1-5c-2.3-2.2-4.1-4.8-5.3-7.9c-1.3-3.1-1.9-6.5-1.9-10.3s0.6-7.2,1.9-10.3
		s3-5.7,5.3-7.9s5-3.8,8.1-5s6.5-1.7,10.3-1.7c1.3,0,2.7,0.1,4.2,0.4c1.5,0.2,2.9,0.6,4.3,1.2c1.4,0.5,2.8,1.3,4.1,2.1
		c1.3,0.9,2.5,2,3.5,3.3L327.1,31.9z"/>
	<path class="st3" d="M351.2,28.8h-13.5v-9.2h37.5v9.2h-13.5V67h-10.5V28.8z"/>
	<path class="st3" d="M405,51.1c0,2.2-0.2,4.3-0.6,6.4c-0.4,2.1-1.1,3.9-2.2,5.5s-2.6,2.9-4.6,3.8s-4.6,1.4-7.8,1.4
		c-3.8,0-6.9-0.9-9.5-2.7c-2.6-1.8-4.3-4.6-5-8.4l9.6-2.3c0.1,1.2,0.7,2.1,1.6,2.9c0.9,0.8,2,1.2,3.1,1.2c1.2,0,2.1-0.3,2.8-0.9
		c0.7-0.6,1.2-1.4,1.5-2.2c0.3-0.9,0.5-1.9,0.6-2.9s0.1-2,0.1-2.9V19.6H405V51.1z"/>
	<path class="st3" d="M437.4,31.2c-0.8-1.1-2-1.9-3.5-2.4s-2.8-0.8-4.1-0.8c-0.8,0-1.5,0.1-2.3,0.3c-0.8,0.2-1.6,0.5-2.3,0.8
		c-0.7,0.4-1.3,0.9-1.7,1.5c-0.4,0.6-0.7,1.4-0.7,2.3c0,1.4,0.5,2.5,1.6,3.3s2.4,1.4,4.1,1.9c1.6,0.5,3.4,1.1,5.3,1.6
		s3.6,1.3,5.3,2.3c1.6,1,3,2.3,4.1,4s1.6,3.9,1.6,6.6c0,2.6-0.5,4.9-1.5,6.9s-2.3,3.6-4,4.9s-3.6,2.3-5.8,2.9
		c-2.2,0.6-4.5,0.9-7,0.9c-3.1,0-5.9-0.5-8.6-1.4c-2.6-0.9-5.1-2.5-7.4-4.6l7.4-8.2c1.1,1.4,2.4,2.5,4.1,3.3
		c1.6,0.8,3.3,1.2,5.1,1.2c0.8,0,1.7-0.1,2.6-0.3s1.7-0.5,2.3-0.9c0.7-0.4,1.2-0.9,1.7-1.5c0.4-0.6,0.6-1.4,0.6-2.2
		c0-1.4-0.5-2.6-1.6-3.4c-1.1-0.8-2.5-1.5-4.1-2.1c-1.7-0.6-3.4-1.2-5.4-1.7c-1.9-0.6-3.7-1.4-5.4-2.3c-1.7-1-3-2.3-4.1-3.9
		c-1.1-1.6-1.6-3.7-1.6-6.4c0-2.5,0.5-4.8,1.5-6.7c1-1.9,2.3-3.5,4-4.8s3.6-2.3,5.8-2.9c2.2-0.6,4.4-1,6.8-1c2.7,0,5.3,0.4,7.8,1.1
		c2.5,0.8,4.8,2,6.8,3.8L437.4,31.2z"/>
</g>
<g class="st2">
	<path class="st0" d="M160.8,86.6h17.6c2.5,0,4.8,0.2,7,0.7c2.2,0.4,4.1,1.2,5.7,2.3c1.6,1.1,2.9,2.6,3.9,4.4c1,1.9,1.4,4.2,1.4,7
		s-0.4,5.1-1.3,7c-0.9,1.9-2.1,3.4-3.7,4.5c-1.6,1.1-3.4,1.9-5.6,2.4s-4.5,0.7-7,0.7h-7.6V134h-10.5V86.6H160.8z M171.3,106.7h7
		c0.9,0,1.8-0.1,2.7-0.3s1.7-0.5,2.3-0.9c0.7-0.4,1.2-1,1.7-1.7c0.4-0.7,0.6-1.7,0.6-2.8c0-1.2-0.3-2.2-0.8-2.9
		c-0.6-0.7-1.3-1.3-2.1-1.7c-0.9-0.4-1.8-0.7-2.9-0.8c-1.1-0.1-2.1-0.2-3.1-0.2h-5.4V106.7z"/>
	<path class="st0" d="M203.1,86.6h10.5v17.7h20.3V86.6h10.5V134h-10.5v-20.5h-20.3V134h-10.5V86.6z"/>
	<path class="st0" d="M253.8,86.6h10.5V134h-10.5L253.8,86.6L253.8,86.6z"/>
	<path class="st0" d="M274.1,86.6h10.5v37.8H304v9.6h-29.8V86.6H274.1z"/>
	<path class="st0" d="M309.6,86.6H320V134h-10.5V86.6H309.6z"/>
	<path class="st0" d="M329.6,86.6h17.6c2.5,0,4.8,0.2,7,0.7c2.2,0.4,4.1,1.2,5.7,2.3c1.6,1.1,2.9,2.6,3.9,4.4c1,1.9,1.4,4.2,1.4,7
		s-0.4,5.1-1.3,7s-2.1,3.4-3.7,4.5s-3.4,1.9-5.6,2.4c-2.1,0.5-4.5,0.7-7,0.7H340V134h-10.5V86.6H329.6z M340,106.7h7
		c0.9,0,1.8-0.1,2.7-0.3s1.7-0.5,2.3-0.9c0.7-0.4,1.2-1,1.7-1.7c0.4-0.7,0.6-1.7,0.6-2.8c0-1.2-0.3-2.2-0.8-2.9
		c-0.6-0.7-1.3-1.3-2.1-1.7c-0.9-0.4-1.8-0.7-2.9-0.8c-1.1-0.1-2.1-0.2-3.1-0.2H340V106.7z"/>
	<path class="st0" d="M371.8,86.6h17.6c2.5,0,4.8,0.2,7,0.7s4.1,1.2,5.7,2.3c1.6,1.1,2.9,2.6,3.9,4.4c1,1.9,1.4,4.2,1.4,7
		s-0.4,5.1-1.3,7s-2.1,3.4-3.7,4.5s-3.4,1.9-5.6,2.4c-2.1,0.5-4.5,0.7-7,0.7h-7.6V134h-10.5V86.6H371.8z M382.2,106.7h7
		c0.9,0,1.8-0.1,2.7-0.3s1.7-0.5,2.3-0.9c0.7-0.4,1.2-1,1.7-1.7c0.4-0.7,0.6-1.7,0.6-2.8c0-1.2-0.3-2.2-0.8-2.9
		c-0.6-0.7-1.3-1.3-2.1-1.7c-0.9-0.4-1.8-0.7-2.9-0.8c-1.1-0.1-2.1-0.2-3.1-0.2h-5.4L382.2,106.7L382.2,106.7z"/>
	<path class="st0" d="M413.8,86.6h10.5V134h-10.5V86.6z"/>
	<path class="st0" d="M433.8,86.6H448l20.2,33h0.1v-33h10.5V134h-13.7l-20.7-33.8h-0.1V134h-10.5V86.6z"/>
	<path class="st0" d="M488.8,86.6H521v9.6h-21.8v8.8h20.6v9.6h-20.6v9.6h23v9.6h-33.4L488.8,86.6L488.8,86.6z"/>
	<path class="st0" d="M554.1,98.2c-0.8-1.1-2-1.9-3.5-2.4s-2.8-0.8-4.1-0.8c-0.8,0-1.5,0.1-2.3,0.3c-0.8,0.2-1.6,0.5-2.3,0.8
		c-0.7,0.4-1.3,0.9-1.7,1.5s-0.7,1.4-0.7,2.3c0,1.4,0.5,2.5,1.6,3.3s2.4,1.4,4.1,1.9c1.6,0.5,3.4,1.1,5.3,1.6
		c1.9,0.5,3.6,1.3,5.3,2.3c1.6,1,3,2.3,4.1,4s1.6,3.9,1.6,6.6c0,2.6-0.5,4.9-1.5,6.9c-1,2-2.3,3.6-4,4.9s-3.6,2.3-5.8,2.9
		c-2.2,0.6-4.5,0.9-7,0.9c-3.1,0-5.9-0.5-8.6-1.4c-2.6-0.9-5.1-2.5-7.4-4.6l7.4-8.2c1.1,1.4,2.4,2.5,4.1,3.3
		c1.6,0.8,3.3,1.2,5.1,1.2c0.8,0,1.7-0.1,2.6-0.3c0.9-0.2,1.7-0.5,2.3-0.9c0.7-0.4,1.2-0.9,1.7-1.5c0.4-0.6,0.6-1.4,0.6-2.2
		c0-1.4-0.5-2.6-1.6-3.4s-2.5-1.5-4.1-2.1c-1.7-0.6-3.4-1.2-5.4-1.7c-1.9-0.6-3.7-1.4-5.4-2.3c-1.7-1-3-2.3-4.1-3.9
		s-1.6-3.7-1.6-6.4c0-2.5,0.5-4.8,1.5-6.7c1-1.9,2.3-3.5,4-4.8s3.6-2.3,5.8-2.9s4.4-1,6.8-1c2.7,0,5.3,0.4,7.8,1.1
		c2.5,0.8,4.8,2,6.8,3.8L554.1,98.2z"/>
</g>
</svg>
