<svg id="Component_1_1" data-name="Component 1 – 1" xmlns="http://www.w3.org/2000/svg" xmlns:xlink="http://www.w3.org/1999/xlink" width="565.024" height="159" viewBox="0 0 565.024 159">
  <defs>
    <clipPath id="clip-path">
      <rect id="Rectangle_21" data-name="Rectangle 21" width="136" height="136" fill="#f7d663"/>
    </clipPath>
  </defs>
  <g id="reactjs-ph_blue_-edited" data-name="reactjs-ph[blue]-edited" transform="translate(0 8)" clip-path="url(#clip-path)">
    <g id="Group_30" data-name="Group 30">
      <path id="Path_68" data-name="Path 68" d="M412.91,8.692h23.918l-19.35,14.064L424.87,0l7.39,22.756L412.91,8.692Z" transform="translate(-356.754)" fill="#f7d663"/>
      <path id="Path_69" data-name="Path 69" d="M824.13,840.822h23.918L828.7,854.887l7.392-22.757,7.392,22.757-19.35-14.065Z" transform="translate(-712.048 -718.96)" fill="#f7d663"/>
      <path id="Path_70" data-name="Path 70" d="M0,841.363H23.92L4.568,855.427,11.96,832.67l7.392,22.757L0,841.363Z" transform="translate(0 -719.427)" fill="#f7d663"/>
      <path id="Path_71" data-name="Path 71" d="M183.328,228.2c0-4.809-6.021-9.368-15.252-12.194,2.13-9.413,1.183-16.9-2.992-19.3a6.492,6.492,0,0,0-3.314-.828v3.3a3.425,3.425,0,0,1,1.686.385c2.011,1.155,2.885,5.55,2.2,11.2-.163,1.391-.428,2.856-.755,4.352a71.666,71.666,0,0,0-9.389-1.618,72.182,72.182,0,0,0-6.154-7.4c4.823-4.488,9.35-6.936,12.426-6.936v-3.3h0c-4.068,0-9.394,2.9-14.779,7.932-5.384-5-10.71-7.873-14.779-7.873v3.3c3.063,0,7.6,2.448,12.426,6.9a69.889,69.889,0,0,0-6.108,7.383,69.066,69.066,0,0,0-9.408,1.632c-.34-1.48-.592-2.916-.77-4.292-.695-5.654.163-10.048,2.16-11.217a3.237,3.237,0,0,1,1.7-.385v-3.3h0a6.654,6.654,0,0,0-3.343.828c-4.158,2.4-5.089,9.871-2.944,19.254-9.2,2.841-15.193,7.385-15.193,12.179s6.021,9.373,15.252,12.2c-2.13,9.413-1.183,16.9,2.992,19.3a6.507,6.507,0,0,0,3.328.828c4.068,0,9.394-2.9,14.779-7.932,5.384,5,10.71,7.873,14.779,7.873a6.654,6.654,0,0,0,3.343-.828c4.158-2.4,5.089-9.871,2.944-19.254C177.33,237.557,183.328,233,183.328,228.2Zm-19.26-9.871c-.544,1.9-1.224,3.877-2,5.848-.607-1.185-1.243-2.368-1.938-3.552s-1.4-2.338-2.13-3.463C160.1,217.475,162.129,217.856,164.067,218.333Zm-6.776,15.76c-1.155,2-2.338,3.891-3.566,5.659-2.2.192-4.438.3-6.687.3s-4.468-.1-6.657-.282q-1.841-2.647-3.58-5.629-1.686-2.908-3.078-5.89c.917-1.983,1.953-3.966,3.063-5.905,1.153-2,2.338-3.892,3.565-5.654,2.2-.192,4.438-.3,6.687-.3s4.468.1,6.657.282q1.841,2.641,3.58,5.624,1.686,2.908,3.078,5.89C159.421,230.172,158.4,232.155,157.292,234.093Zm4.778-1.924c.8,1.983,1.48,3.966,2.04,5.89-1.937.469-3.978.877-6.091,1.185.725-1.14,1.45-2.312,2.13-3.507s1.315-2.376,1.922-3.566Zm-15,15.79a60.985,60.985,0,0,1-4.113-4.736c1.331.06,2.693.1,4.068.1s2.766-.03,4.113-.1a57.746,57.746,0,0,1-4.068,4.737Zm-11.006-8.716c-2.1-.311-4.128-.695-6.066-1.17.544-1.9,1.224-3.877,2-5.848.607,1.185,1.243,2.368,1.938,3.552s1.406,2.343,2.131,3.467ZM147,208.446a60.988,60.988,0,0,1,4.113,4.736c-1.331-.06-2.693-.1-4.068-.1s-2.766.03-4.113.1A57.755,57.755,0,0,1,147,208.448Zm-10.947,8.716c-.725,1.14-1.45,2.312-2.13,3.507s-1.316,2.368-1.923,3.552c-.8-1.983-1.48-3.966-2.04-5.89,1.935-.458,3.977-.857,6.093-1.168Zm-13.391,18.53c-5.237-2.234-8.625-5.168-8.625-7.488s3.39-5.269,8.625-7.492c1.272-.544,2.663-1.036,4.1-1.5a71.082,71.082,0,0,0,3.328,9.013A70.073,70.073,0,0,0,126.8,237.2C125.337,236.742,123.947,236.239,122.658,235.692Zm7.959,21.147c-2.011-1.155-2.885-5.55-2.2-11.2.163-1.391.428-2.856.755-4.352a71.674,71.674,0,0,0,9.394,1.613,72.188,72.188,0,0,0,6.154,7.4c-4.823,4.488-9.35,6.936-12.426,6.936a3.537,3.537,0,0,1-1.67-.394ZM165.7,245.562c.695,5.654-.163,10.048-2.16,11.217a3.237,3.237,0,0,1-1.7.385c-3.063,0-7.6-2.448-12.426-6.9a69.9,69.9,0,0,0,6.113-7.388,69.066,69.066,0,0,0,9.408-1.632,41.431,41.431,0,0,1,.77,4.314Zm5.7-9.871c-1.272.544-2.663,1.036-4.1,1.5a71.082,71.082,0,0,0-3.328-9.013,70.092,70.092,0,0,0,3.291-8.968c1.465.458,2.856.962,4.158,1.51,5.226,2.234,8.626,5.164,8.626,7.488s-3.408,5.267-8.646,7.488ZM140.264,228.2a6.761,6.761,0,1,1,6.761,6.763A6.765,6.765,0,0,1,140.264,228.2Zm9.865-29.273,2.274-20.244-5.47-6.188-5.542,6.188,2.245,20.14q1.651,1.293,3.328,2.849Q148.558,200.186,150.13,198.932Zm-11.651-17.725-3.211,3.937,2.448,9.861a31.181,31.181,0,0,1,3.344,1.954Zm20.249,3.937-3.158-3.937-2.778,15.776a31.441,31.441,0,0,1,3.373-2Zm-3.211,90.124,3.211-3.937-2.471-9.928a31.322,31.322,0,0,1-3.339-1.96Zm-11.655-17.744-2.27,20.264,5.47,6.184,5.543-6.184-2.255-20.212q-1.632-1.281-3.287-2.817Q145.454,256.261,143.862,257.525Zm-8.594,13.807,3.166,3.937,2.777-15.8a31.32,31.32,0,0,1-3.369,1.991Zm54.809-31.359,3.936-3.161-11.095-1.956a22.356,22.356,0,0,1-3.248,2.4Zm3.934-20.257-3.936-3.212-10.528,2.622a22.628,22.628,0,0,1,3.314,2.422Zm-8.9,12.651,11.424,1.28,6.181-5.471-6.183-5.545L185,223.918a6.973,6.973,0,0,1,.113,8.448Zm-76.242-8.254-11.408-1.278L91.28,228.3l6.181,5.545,11.553-1.289a7.549,7.549,0,0,1-1.5-4.333A7.369,7.369,0,0,1,108.87,224.112ZM99.984,236.76l3.936,3.212,10.559-2.63a22.725,22.725,0,0,1-3.32-2.419ZM103.92,216.5l-3.936,3.162,11.076,1.953a22.313,22.313,0,0,1,3.249-2.4Zm19.589-4.166-15.776-11.33.509,5.056,15.153,9.112q.322-.1.65-.205Q123.739,213.629,123.509,212.337Zm3.74-18.312q.1-.054.19-.1l-2.606-4.451-5.017-.544,5.129,7.325a6.936,6.936,0,0,1,2.3-2.225Zm-3.639,5.146-7.82-9.792-8.239-.5.452,8.3,15.05,12.033A26.145,26.145,0,0,1,123.61,199.171Zm46.92,45,15.737,11.3-.513-5.055-15.172-9.126-.6.189Q170.3,242.849,170.53,244.168Zm-3.751,18.255c-.075.044-.151.084-.228.125l2.619,4.458,5.017.544-5.126-7.31a6.923,6.923,0,0,1-2.282,2.183Zm3.615-5.1,7.8,9.776,8.246.5-.452-8.3-15.013-12A25.686,25.686,0,0,1,170.394,257.326Zm-1.4-61.083,5.228-7.286-5.048.511-2.657,4.421.126.071A6.988,6.988,0,0,1,168.99,196.243Zm1.355,18.856,15.409-9.036.544-5.018-15.852,11.107q-.237,1.372-.56,2.8Zm.541-6.125,14.96-11.952.5-8.242-8.3.452-7.8,9.772A25.8,25.8,0,0,1,170.886,208.974ZM125.015,260.22l-5.237,7.3,5.056-.513,2.67-4.442-.136-.078a6.981,6.981,0,0,1-2.353-2.267ZM123.108,247.5l-14.96,11.949-.5,8.242,8.3-.452,7.805-9.778A25.573,25.573,0,0,1,123.108,247.5Zm.574-6.146-15.44,9.054-.544,5.018,15.851-11.1q.238-1.387.566-2.836Z" transform="translate(-78.866 -149.04)" fill="#f7d663" fill-rule="evenodd"/>
    </g>
  </g>
  <text id="ReactJS_Philippines" data-name="ReactJS
Philippines" transform="translate(156.024 67)" fill="#7bd5f5" font-size="67" font-family="Avenir-Black, Avenir" font-weight="800"><tspan x="0" y="0">REACTJS</tspan><tspan fill="#f7d663"><tspan x="0" y="67">PHILIPPINES</tspan></tspan></text>
</svg>
