<svg xmlns="http://www.w3.org/2000/svg" width="35.192" height="29.021" viewBox="0 0 35.192 29.021">
  <path id="meetup" d="M35.159,28.694c-.446-2.831-5.68-.651-6.006-3.752-.459-4.4,6.085-13.87,5.568-17.555-.459-3.307-2.7-4-4.641-4.041a4.654,4.654,0,0,0-3.018.638,1.134,1.134,0,0,1-1.631-.06c-.49-.466-.817-.786-1.327-1.2a2.808,2.808,0,0,0-1.386-.579,4.549,4.549,0,0,0-2.188.245,6.033,6.033,0,0,0-1.5,1.1c-.474.415-1.682,1.757-2.8,1.26-.491-.213-2.138-1.035-3.331-1.547-2.292-.993-5.6.616-6.8,2.736C4.317,9.087.817,21.483.283,23.113-.9,26.782,1.8,29.77,5.428,29.6a3.835,3.835,0,0,0,3.537-2.4c.563-1.016,5.834-14.791,6.229-15.459a1.729,1.729,0,0,1,2.038-.7,1.866,1.866,0,0,1,.852,2.084c-.2,1.312-3.914,9.72-4.063,10.667-.238,1.617.526,2.513,2.21,2.6a3.226,3.226,0,0,0,3.2-2.067c.512-.956,6.377-12.707,6.895-13.493.572-.859,1.031-1.142,1.617-1.111.453.022,1.172.141.994,1.49-.179,1.327-4.9,9.942-5.39,12.054A6.24,6.24,0,0,0,26.981,30.2c1.631.8,8.754,2.164,8.178-1.506Z" transform="translate(0 -2.104)" fill="#fff"/>
</svg>
